    <svg
      width="29"
      height="32"
      view-box="0 0 29 32"
      fill="none"
      xmlns="http://www.w3.org/2000/svg"
    >
      <path
        d="M24.425 8.18281C24.577 6.04141 23.3286 4.04963 21.3462 3.27115C19.3638 2.49034 17.1078 3.10283 15.78 4.77902L14.8285 4.44939L13.8583 4.14548L12.8765 3.86962C14.2183 1.56224 16.6379 0.105814 19.289 0.00528946C21.94 -0.0928969 24.4648 1.18119 25.9727 3.38337L28.9977 3.5961L24.425 8.18281Z"
        fill="#4A9CA6"
      />
      <path
        d="M26.6554 16.3463L26.6344 17.0079L26.5876 17.6695L26.5128 18.3241L26.4099 18.9717L26.279 19.6192L26.1224 20.2598L25.9377 20.8933L25.725 21.5198L25.4865 22.1323L25.227 22.7378L24.9325 23.3223L24.6192 23.9067L24.2849 24.4724L23.9226 25.0171L23.5392 25.5548L23.1301 26.0715L22.7069 26.5671L22.2557 27.0487L21.7835 27.5092L21.2996 27.951L20.7946 28.3648L20.2686 28.7646L19.7286 29.1363L19.1745 29.4869L18.6018 29.8096L18.022 30.1135L17.4282 30.3893L16.8204 30.6371L16.2056 30.8569L15.5837 31.0556L14.9479 31.2216L14.312 31.3665L13.6621 31.4764L13.0192 31.5652L12.3646 31.6213L11.71 31.6564H11.0601L10.4056 31.6283L9.751 31.5722L9.1011 31.4904L8.45821 31.3805L7.81533 31.2426L7.18647 31.0766L6.55761 30.8896L6.16252 31.1094L5.7464 31.3034L5.33028 31.4834L4.90013 31.6354L4.46296 31.7593L4.01879 31.8551L3.5676 31.9299L3.11641 31.979L2.65821 32.0001L2.2 31.993L1.74881 31.965L1.29762 31.9019L0.846436 31.82L5.61548 27.0323C10.3284 29.5618 16.1238 28.6991 19.9109 24.9026C23.6958 21.106 24.5865 15.264 22.1061 10.4972L24.4205 8.17584L24.7501 8.75093L25.0517 9.33538L25.3322 9.92683L25.5847 10.5393L25.8091 11.1588L26.0149 11.7854L26.1855 12.4189L26.3351 13.0594L26.452 13.714L26.5409 14.3686L26.6087 15.0232L26.6437 15.6777L26.6507 16.3393L26.6554 16.3463Z"
        fill="#4A9CA6"
      />
      <path
        fill-rule="evenodd"
        clip-rule="evenodd"
        d="M11.3522 26.0247C16.7291 26.0247 21.0914 21.6274 21.0914 16.2014C21.0914 15.8671 21.075 15.5352 21.0423 15.2079C20.9371 14.1489 20.6635 13.1366 20.2498 12.2038L11.8151 20.6198L6.71174 15.5165C6.25353 15.0582 6.25353 14.3148 6.71174 13.8566C7.16994 13.3984 7.91335 13.3984 8.37155 13.8566L11.8174 17.3025L19.0084 10.1279C17.9003 8.70887 16.4135 7.60544 14.7022 6.9719C14.6929 6.96723 14.6859 6.96489 14.6765 6.96255C14.5456 6.9158 14.4123 6.86904 14.2768 6.82462C14.2674 6.82229 14.2604 6.81995 14.251 6.81761C11.0553 5.74691 7.63516 5.16714 4.08408 5.16714C2.92221 5.16714 1.7767 5.23026 0.647562 5.35183C0.226764 6.54877 0 7.83454 0 9.17642C0 11.3716 0.610158 13.4195 1.66917 15.1634C1.63176 15.5048 1.6154 15.8508 1.6154 16.2014C1.6154 21.6274 5.97768 26.0247 11.3545 26.0247H11.3522Z"
        fill="#4A9CA6"
      />
    </svg>